<?xml version="1.0" encoding="UTF-8"?>
<svg width="77px" height="28px" viewBox="0 0 77 28" version="1.1" xmlns="http://www.w3.org/2000/svg" xmlns:xlink="http://www.w3.org/1999/xlink">
    <!-- Generator: Sketch 60.1 (88133) - https://sketch.com -->
    <title>logo_ag</title>
    <desc>Created with Sketch.</desc>
    <defs>
        <polygon id="path-1" points="0 0.1375 11.21 0.1375 11.21 13.0635 0 13.0635"></polygon>
        <polygon id="path-3" points="0.6112 0.1411 12.3612 0.1411 12.3612 10 0.6112 10"></polygon>
        <polygon id="path-5" points="0.1541 0.6333 25.865 0.6333 25.865 26.1513 0.1541 26.1513"></polygon>
    </defs>
    <g id="logo_ag" stroke="none" stroke-width="1" fill="none" fill-rule="evenodd">
        <g id="编组">
            <g transform="translate(0.000000, 4.531700)">
                <mask id="mask-2" fill="white">
                    <use xlink:href="#path-1"></use>
                </mask>
                <g id="Clip-2"></g>
                <path d="M2.743,13.0635 C1.339,11.6205 -0.188,9.2385 0.018,5.8075 C0.347,2.5805 3.055,0.1375 6.317,0.1375 C8.227,0.1375 10.022,1.0235 11.21,2.4605 C10.639,2.1475 9.892,1.9095 8.944,1.9095 C8.797,1.9095 8.644,1.9165 8.486,1.9285 C6.343,2.0975 2.814,3.8515 1.882,7.9895 C1.42,10.0365 1.951,11.7505 2.743,13.0635" id="Fill-1" fill="#FEFEFE" mask="url(#mask-2)"></path>
            </g>
            <path d="M9.0262,20.3355 C8.0522,20.3355 7.0932,20.1865 6.1732,19.8905 C5.8062,19.6585 1.7782,16.9965 2.7422,12.7155 C3.1922,10.7215 4.2232,9.4905 5.1172,8.7665 C4.7322,9.4395 4.5212,10.2085 4.5212,11.0005 C4.5212,13.4845 6.5422,15.5055 9.0262,15.5055 C10.3582,15.5055 11.4412,16.5885 11.4412,17.9205 C11.4412,19.2525 10.3582,20.3355 9.0262,20.3355" id="Fill-3" fill="#FEFEFE"></path>
            <path d="M12.8289,20.6099 C13.2859,19.8949 13.5309,19.0649 13.5309,18.1969 L13.5309,11.0009 C13.5309,7.0229 10.2939,3.7859 6.3159,3.7859 C4.3589,3.7859 2.5759,4.5589 1.2719,5.8299 C2.9559,3.3159 5.8229,1.6659 9.0259,1.6659 C14.1739,1.6659 18.3609,5.8529 18.3609,11.0009 L18.3609,16.1579 L18.1679,16.4439 C16.8679,18.3639 14.9969,19.8179 12.8289,20.6099" id="Fill-5" fill="#FEFEFE"></path>
            <g transform="translate(6.000000, 17.531700)">
                <mask id="mask-4" fill="white">
                    <use xlink:href="#path-3"></use>
                </mask>
                <g id="Clip-8"></g>
                <path d="M3.0262,10.0001 C1.6942,10.0001 0.6112,8.9171 0.6112,7.5841 C0.6112,6.2521 1.6942,5.1691 3.0262,5.1691 C3.9412,5.1691 4.8222,4.8931 5.5782,4.3711 C8.2772,3.7841 10.6542,2.2961 12.3612,0.1411 L12.3612,0.6651 C12.3612,5.8121 8.1732,10.0001 3.0262,10.0001" id="Fill-7" fill="#FEFEFE" mask="url(#mask-4)"></path>
            </g>
            <path d="M40.534,10.2139 C41.931,9.0549 43.2,7.5749 44.341,5.7729 L37.527,5.7729 C37.38,6.0299 37.261,6.2239 37.169,6.3519 C38.198,7.9149 39.32,9.2019 40.534,10.2139 L40.534,10.2139 Z M36.506,23.0409 L44.396,23.0409 L44.396,18.3519 L36.506,18.3519 L36.506,23.0409 Z M36.507,26.4889 L34.437,26.4889 L34.437,16.3929 L46.437,16.3929 L46.437,26.4889 L44.396,26.4889 L44.396,24.9719 L36.507,24.9719 L36.507,26.4889 Z M49.113,14.0749 L48.368,16.1169 C45.242,15.2889 42.667,14.1769 40.644,12.7789 C38.566,14.1949 35.991,15.3719 32.921,16.3109 L32.038,14.3519 C34.925,13.4329 37.205,12.4399 38.879,11.3719 C37.848,10.4529 36.892,9.3589 36.01,8.0899 C35.274,9.1379 34.621,9.9749 34.052,10.5999 L32.672,9.0549 C33.61,7.9879 34.515,6.7199 35.389,5.2479 C36.263,3.7769 36.984,2.3609 37.555,0.9999 L39.651,1.6899 C39.21,2.6469 38.869,3.3549 38.631,3.8139 L46.879,3.8139 L46.879,5.7729 C45.628,8.0529 44.12,9.9559 42.354,11.4829 C44.101,12.5309 46.354,13.3959 49.113,14.0749 L49.113,14.0749 Z M31.155,14.7099 C30.437,13.6619 29.794,12.7979 29.223,12.1169 L29.223,26.3239 L27.182,26.3239 L27.182,13.7169 C26.318,16.2189 25.334,18.3699 24.23,20.1719 L23.182,17.9649 C24.01,16.6419 24.773,15.1429 25.472,13.4689 C26.171,11.7959 26.722,10.1769 27.127,8.6129 L24.01,8.6129 L24.01,6.5179 L27.182,6.5179 L27.182,1.2759 L29.223,1.2759 L29.223,6.5179 L32.093,6.5179 L32.093,8.6129 L29.223,8.6129 L29.223,9.8269 C30.383,10.8199 31.468,11.8779 32.479,12.9999 L31.155,14.7099 Z" id="Fill-9" fill="#FEFEFE"></path>
            <g transform="translate(51.000000, 0.531700)">
                <mask id="mask-6" fill="white">
                    <use xlink:href="#path-5"></use>
                </mask>
                <g id="Clip-12"></g>
                <path d="M23.8231,14.4263 C21.5061,13.2683 19.4461,12.3023 17.6441,11.5303 L18.4711,9.9863 C19.2251,10.2613 20.2371,10.6893 21.5061,11.2683 C22.7751,11.8473 23.8231,12.3493 24.6511,12.7723 L23.8231,14.4263 Z M17.2581,14.9783 C15.6211,13.9853 14.2051,12.9833 13.0101,11.9713 C11.8141,12.9833 10.3701,13.9853 8.6781,14.9783 L17.2581,14.9783 Z M6.9691,23.5303 L18.9961,23.5303 L18.9961,22.1243 L6.9691,22.1243 L6.9691,23.5303 Z M6.9691,20.7443 L18.9961,20.7443 L18.9961,19.3093 L6.9691,19.3093 L6.9691,20.7443 Z M6.9691,17.9033 L18.9961,17.9033 L18.9961,16.4683 L6.9691,16.4683 L6.9691,17.9033 Z M5.9751,9.3513 L19.9331,9.3513 L19.9331,7.8893 L5.9751,7.8893 L5.9751,9.3513 Z M22.0301,6.6753 L3.8791,6.6753 L3.8791,9.5163 L1.8381,9.5163 L1.8381,5.1303 L11.3541,5.1303 L11.3541,0.6333 L13.4781,0.6333 L13.4781,2.2343 L22.9131,2.2343 L22.9131,3.6963 L13.4781,3.6963 L13.4781,5.1303 L24.0711,5.1303 L24.0711,9.5163 L22.0301,9.5163 L22.0301,6.6753 Z M8.2101,11.3643 C7.4191,11.8793 6.4301,12.4223 5.2441,12.9923 C4.0581,13.5623 2.9501,14.0503 1.9201,14.4543 L1.1471,12.7433 C2.0861,12.4123 3.1571,11.9713 4.3611,11.4193 C5.5651,10.8673 6.5631,10.3633 7.3541,9.9033 L8.2101,11.3643 Z M24.9541,18.6473 C23.7041,18.1883 22.4341,17.6543 21.1471,17.0473 L21.1471,26.0953 L18.9961,26.0953 L18.9961,25.0743 L6.9691,25.0743 L6.9691,26.1513 L4.8161,26.1513 L4.8161,16.9643 C3.7681,17.4613 2.4901,17.9943 0.9821,18.5653 L0.1541,16.6333 C4.9181,15.0333 8.7791,12.9833 11.7411,10.4823 L14.2231,10.4823 C15.6021,11.6963 17.2901,12.8363 19.2851,13.9033 C21.2811,14.9693 23.4731,15.8893 25.8651,16.6613 L24.9541,18.6473 Z" id="Fill-11" fill="#FEFEFE" mask="url(#mask-6)"></path>
            </g>
        </g>
    </g>
</svg>